<mxfile host="Electron" agent="Mozilla/5.0 (Macintosh; Intel Mac OS X 10_15_7) AppleWebKit/537.36 (KHTML, like Gecko) draw.io/26.0.16 Chrome/132.0.6834.196 Electron/34.2.0 Safari/537.36" version="26.0.16">
  <diagram name="Page-1" id="XlzlGK5k6UERkV62ZB3r">
    <mxGraphModel dx="1645" dy="269" grid="1" gridSize="10" guides="1" tooltips="1" connect="1" arrows="1" fold="1" page="1" pageScale="1" pageWidth="600" pageHeight="100" math="0" shadow="0">
      <root>
        <mxCell id="0" />
        <mxCell id="1" parent="0" />
        <mxCell id="mLmcHliwGiG98P-fe-qq-47" value="&lt;div&gt;&lt;span&gt;Positive reinforcement&lt;/span&gt;&lt;/div&gt;" style="rounded=0;whiteSpace=wrap;html=1;align=left;spacingLeft=5;fontStyle=0" parent="1" vertex="1">
          <mxGeometry x="1115" y="786" width="208" height="30" as="geometry" />
        </mxCell>
        <mxCell id="mLmcHliwGiG98P-fe-qq-48" value="&lt;div&gt;&lt;span style=&quot;background-color: transparent; color: light-dark(rgb(0, 0, 0), rgb(255, 255, 255));&quot;&gt;&lt;b&gt;Answer evaluation&lt;/b&gt;: Based on incorrect/correct answer -- Cell and feedback color changes, icon indicator, feedback tray message&lt;/span&gt;&lt;/div&gt;&lt;div&gt;&lt;span style=&quot;background-color: transparent; color: light-dark(rgb(0, 0, 0), rgb(255, 255, 255));&quot;&gt;&lt;b&gt;Metric&lt;/b&gt;:&amp;nbsp; Reduced repeat error rate&lt;/span&gt;&lt;/div&gt;" style="rounded=1;whiteSpace=wrap;html=1;align=left;spacingLeft=5;" parent="1" vertex="1">
          <mxGeometry x="699" y="815" width="284" height="72" as="geometry" />
        </mxCell>
        <mxCell id="mLmcHliwGiG98P-fe-qq-54" value="Practice Regularly" style="shape=process;whiteSpace=wrap;html=1;backgroundOutline=1;spacingLeft=4;spacingRight=4;" parent="1" vertex="1">
          <mxGeometry x="453" y="1152" width="120" height="60" as="geometry" />
        </mxCell>
        <mxCell id="mLmcHliwGiG98P-fe-qq-56" value="Correct Mistakes" style="shape=process;whiteSpace=wrap;html=1;backgroundOutline=1;spacingLeft=4;spacingRight=4;" parent="1" vertex="1">
          <mxGeometry x="453" y="895" width="120" height="60" as="geometry" />
        </mxCell>
        <mxCell id="mLmcHliwGiG98P-fe-qq-57" value="Practice at Right Level" style="shape=process;whiteSpace=wrap;html=1;backgroundOutline=1;spacingLeft=4;spacingRight=4;" parent="1" vertex="1">
          <mxGeometry x="453" y="558" width="120" height="60" as="geometry" />
        </mxCell>
        <mxCell id="mLmcHliwGiG98P-fe-qq-58" value="Perform spaced repetition" style="shape=process;whiteSpace=wrap;html=1;backgroundOutline=1;spacingLeft=4;spacingRight=4;" parent="1" vertex="1">
          <mxGeometry x="453" y="1220" width="120" height="60" as="geometry" />
        </mxCell>
        <mxCell id="mLmcHliwGiG98P-fe-qq-59" value="Interleave Practice" style="shape=process;whiteSpace=wrap;html=1;backgroundOutline=1;spacingLeft=4;spacingRight=4;" parent="1" vertex="1">
          <mxGeometry x="453" y="1078" width="120" height="60" as="geometry" />
        </mxCell>
        <mxCell id="mLmcHliwGiG98P-fe-qq-60" style="edgeStyle=orthogonalEdgeStyle;rounded=0;orthogonalLoop=1;jettySize=auto;html=1;exitX=0.5;exitY=1;exitDx=0;exitDy=0;" parent="1" source="mLmcHliwGiG98P-fe-qq-57" target="mLmcHliwGiG98P-fe-qq-57" edge="1">
          <mxGeometry relative="1" as="geometry" />
        </mxCell>
        <mxCell id="mLmcHliwGiG98P-fe-qq-61" value="&lt;div style=&quot;&quot;&gt;&lt;font style=&quot;font-size: 15px;&quot;&gt;&lt;b&gt;&lt;u&gt;Outcome&lt;/u&gt;&lt;/b&gt;&lt;/font&gt;&lt;/div&gt;&lt;div style=&quot;&quot;&gt;&lt;span style=&quot;font-size: 15px;&quot;&gt;Feel more confident about math&lt;/span&gt;&lt;/div&gt;&lt;div style=&quot;&quot;&gt;&lt;span style=&quot;font-size: 15px;&quot;&gt;&lt;br&gt;&lt;/span&gt;&lt;/div&gt;&lt;div style=&quot;&quot;&gt;&lt;div style=&quot;&quot;&gt;&lt;b style=&quot;background-color: transparent; color: light-dark(rgb(0, 0, 0), rgb(255, 255, 255));&quot;&gt;Feature&lt;/b&gt;&lt;span style=&quot;background-color: transparent; color: light-dark(rgb(0, 0, 0), rgb(255, 255, 255));&quot;&gt;:&amp;nbsp;&lt;/span&gt;&lt;/div&gt;&lt;div style=&quot;&quot;&gt;&lt;span style=&quot;background-color: transparent; color: light-dark(rgb(0, 0, 0), rgb(255, 255, 255));&quot;&gt;Ask user to rate their confidence&lt;/span&gt;&lt;/div&gt;&lt;div style=&quot;&quot;&gt;&lt;b&gt;&lt;br&gt;&lt;/b&gt;&lt;/div&gt;&lt;div style=&quot;&quot;&gt;&lt;b&gt;Metric&lt;/b&gt;:&amp;nbsp;&lt;/div&gt;&lt;div style=&quot;&quot;&gt;Confidence Score&lt;/div&gt;&lt;/div&gt;" style="rounded=0;whiteSpace=wrap;html=1;align=left;spacingLeft=9;verticalAlign=top;spacingTop=11;spacingRight=9;" parent="1" vertex="1">
          <mxGeometry x="28" y="793" width="270" height="160" as="geometry" />
        </mxCell>
        <mxCell id="X4YH2WltudGpAk-nxp0_-2" value="&lt;div style=&quot;&quot;&gt;&lt;font style=&quot;font-size: 15px;&quot;&gt;&lt;b&gt;&lt;u&gt;Outcome&lt;/u&gt;&lt;/b&gt;&lt;/font&gt;&lt;/div&gt;&lt;div style=&quot;&quot;&gt;&lt;span style=&quot;font-size: 15px;&quot;&gt;Get better grades in school&lt;/span&gt;&lt;/div&gt;&lt;div style=&quot;&quot;&gt;&lt;span style=&quot;font-size: 15px;&quot;&gt;&lt;br&gt;&lt;/span&gt;&lt;/div&gt;&lt;div style=&quot;&quot;&gt;&lt;div style=&quot;&quot;&gt;&lt;div&gt;&lt;b style=&quot;background-color: transparent; color: light-dark(rgb(0, 0, 0), rgb(255, 255, 255));&quot;&gt;Feature&lt;/b&gt;&lt;span style=&quot;background-color: transparent; color: light-dark(rgb(0, 0, 0), rgb(255, 255, 255));&quot;&gt;:&amp;nbsp;&lt;/span&gt;&lt;/div&gt;&lt;div&gt;&lt;span style=&quot;background-color: transparent; color: light-dark(rgb(0, 0, 0), rgb(255, 255, 255));&quot;&gt;Ask user for math grades periodically&lt;/span&gt;&lt;/div&gt;&lt;div&gt;&lt;b&gt;&lt;br&gt;&lt;/b&gt;&lt;/div&gt;&lt;div&gt;&lt;b&gt;Metric&lt;/b&gt;:&amp;nbsp;&lt;/div&gt;&lt;div&gt;Grade trends&lt;/div&gt;&lt;/div&gt;&lt;/div&gt;" style="rounded=0;whiteSpace=wrap;html=1;align=left;spacingLeft=9;verticalAlign=top;spacingTop=11;spacingRight=9;" parent="1" vertex="1">
          <mxGeometry x="28" y="1028" width="270" height="160" as="geometry" />
        </mxCell>
        <mxCell id="X4YH2WltudGpAk-nxp0_-4" value="&lt;div style=&quot;&quot;&gt;&lt;font style=&quot;font-size: 15px;&quot;&gt;&lt;b&gt;&lt;u&gt;Outcome&lt;/u&gt;&lt;/b&gt;&lt;/font&gt;&lt;/div&gt;&lt;div style=&quot;&quot;&gt;&lt;span style=&quot;font-size: 15px;&quot;&gt;Improve math automaticity&lt;/span&gt;&lt;/div&gt;&lt;div style=&quot;&quot;&gt;&lt;span style=&quot;font-size: 15px;&quot;&gt;&lt;br&gt;&lt;/span&gt;&lt;/div&gt;&lt;div style=&quot;&quot;&gt;&lt;div style=&quot;&quot;&gt;&lt;div&gt;&lt;b style=&quot;background-color: transparent; color: light-dark(rgb(0, 0, 0), rgb(255, 255, 255));&quot;&gt;Feature&lt;/b&gt;&lt;span style=&quot;background-color: transparent; color: light-dark(rgb(0, 0, 0), rgb(255, 255, 255));&quot;&gt;: Test recall of math facts&lt;/span&gt;&lt;/div&gt;&lt;div&gt;&lt;span style=&quot;background-color: transparent; color: light-dark(rgb(0, 0, 0), rgb(255, 255, 255));&quot;&gt;&lt;br&gt;&lt;/span&gt;&lt;/div&gt;&lt;div&gt;&lt;b&gt;Metric&lt;/b&gt;: % correct combined with time per problem&lt;/div&gt;&lt;/div&gt;&lt;/div&gt;" style="rounded=0;whiteSpace=wrap;html=1;align=left;spacingLeft=9;verticalAlign=top;spacingTop=11;spacingRight=9;" parent="1" vertex="1">
          <mxGeometry x="28" y="558" width="270" height="160" as="geometry" />
        </mxCell>
        <mxCell id="X4YH2WltudGpAk-nxp0_-5" value="Outcomes" style="text;html=1;align=left;verticalAlign=middle;whiteSpace=wrap;rounded=0;fontSize=26;" parent="1" vertex="1">
          <mxGeometry x="20" y="506" width="60" height="30" as="geometry" />
        </mxCell>
        <mxCell id="X4YH2WltudGpAk-nxp0_-6" value="Behaviors" style="text;html=1;align=left;verticalAlign=middle;whiteSpace=wrap;rounded=0;fontSize=26;" parent="1" vertex="1">
          <mxGeometry x="443" y="506" width="60" height="30" as="geometry" />
        </mxCell>
        <mxCell id="X4YH2WltudGpAk-nxp0_-7" value="Features &amp;amp; Metrics" style="text;html=1;align=left;verticalAlign=middle;whiteSpace=wrap;rounded=0;fontSize=26;" parent="1" vertex="1">
          <mxGeometry x="699" y="506" width="250" height="30" as="geometry" />
        </mxCell>
        <mxCell id="X4YH2WltudGpAk-nxp0_-8" value="Behavioral Drivers" style="text;html=1;align=left;verticalAlign=middle;whiteSpace=wrap;rounded=0;fontSize=26;" parent="1" vertex="1">
          <mxGeometry x="1105" y="506" width="250" height="30" as="geometry" />
        </mxCell>
        <mxCell id="X4YH2WltudGpAk-nxp0_-14" value="&lt;div&gt;&lt;span&gt;Neutral constructive feedback&lt;/span&gt;&lt;/div&gt;" style="rounded=0;whiteSpace=wrap;html=1;align=left;spacingLeft=5;fontStyle=0" parent="1" vertex="1">
          <mxGeometry x="1115" y="836" width="208" height="30" as="geometry" />
        </mxCell>
        <mxCell id="X4YH2WltudGpAk-nxp0_-17" value="" style="endArrow=none;html=1;rounded=0;entryX=0;entryY=0.5;entryDx=0;entryDy=0;exitX=1;exitY=0.5;exitDx=0;exitDy=0;" parent="1" source="mLmcHliwGiG98P-fe-qq-48" target="mLmcHliwGiG98P-fe-qq-47" edge="1">
          <mxGeometry width="50" height="50" relative="1" as="geometry">
            <mxPoint x="853" y="1304" as="sourcePoint" />
            <mxPoint x="903" y="1254" as="targetPoint" />
          </mxGeometry>
        </mxCell>
        <mxCell id="X4YH2WltudGpAk-nxp0_-18" value="" style="endArrow=none;html=1;rounded=0;entryX=0;entryY=0.5;entryDx=0;entryDy=0;exitX=1;exitY=0.5;exitDx=0;exitDy=0;" parent="1" source="mLmcHliwGiG98P-fe-qq-48" target="X4YH2WltudGpAk-nxp0_-14" edge="1">
          <mxGeometry width="50" height="50" relative="1" as="geometry">
            <mxPoint x="959" y="882" as="sourcePoint" />
            <mxPoint x="1143" y="857" as="targetPoint" />
          </mxGeometry>
        </mxCell>
        <mxCell id="X4YH2WltudGpAk-nxp0_-20" value="" style="verticalLabelPosition=bottom;verticalAlign=top;html=1;shape=mxgraph.basic.acute_triangle;dx=0.5;rotation=-90;" parent="1" vertex="1">
          <mxGeometry x="180" y="853" width="380" height="40" as="geometry" />
        </mxCell>
        <mxCell id="X4YH2WltudGpAk-nxp0_-21" value="&lt;div&gt;&lt;span style=&quot;background-color: transparent; color: light-dark(rgb(0, 0, 0), rgb(255, 255, 255));&quot;&gt;&lt;b&gt;Training wheels&lt;/b&gt;: On multi-step problems, mask future steps so student works one step at a time&lt;/span&gt;&lt;/div&gt;&lt;div&gt;&lt;span style=&quot;background-color: transparent; color: light-dark(rgb(0, 0, 0), rgb(255, 255, 255));&quot;&gt;&lt;b&gt;Metric&lt;/b&gt;:&amp;nbsp; Increase problem accuracy&lt;/span&gt;&lt;/div&gt;" style="rounded=1;whiteSpace=wrap;html=1;align=left;spacingLeft=5;" parent="1" vertex="1">
          <mxGeometry x="699" y="559" width="284" height="58" as="geometry" />
        </mxCell>
        <mxCell id="X4YH2WltudGpAk-nxp0_-22" value="&lt;div&gt;&lt;span&gt;Scaffolding&lt;/span&gt;&lt;/div&gt;" style="rounded=0;whiteSpace=wrap;html=1;align=left;spacingLeft=5;fontStyle=0" parent="1" vertex="1">
          <mxGeometry x="1115" y="559" width="208" height="30" as="geometry" />
        </mxCell>
        <mxCell id="X4YH2WltudGpAk-nxp0_-23" value="&lt;div&gt;&lt;span&gt;Task Analysis&lt;/span&gt;&lt;/div&gt;" style="rounded=0;whiteSpace=wrap;html=1;align=left;spacingLeft=5;fontStyle=0" parent="1" vertex="1">
          <mxGeometry x="1115" y="609" width="208" height="30" as="geometry" />
        </mxCell>
        <mxCell id="X4YH2WltudGpAk-nxp0_-24" value="" style="endArrow=none;html=1;rounded=0;entryX=0;entryY=0.5;entryDx=0;entryDy=0;exitX=1;exitY=0.5;exitDx=0;exitDy=0;" parent="1" source="X4YH2WltudGpAk-nxp0_-21" target="X4YH2WltudGpAk-nxp0_-22" edge="1">
          <mxGeometry width="50" height="50" relative="1" as="geometry">
            <mxPoint x="993" y="505" as="sourcePoint" />
            <mxPoint x="1125" y="530" as="targetPoint" />
          </mxGeometry>
        </mxCell>
        <mxCell id="X4YH2WltudGpAk-nxp0_-25" value="" style="endArrow=none;html=1;rounded=0;entryX=0;entryY=0.5;entryDx=0;entryDy=0;exitX=1;exitY=0.5;exitDx=0;exitDy=0;" parent="1" source="X4YH2WltudGpAk-nxp0_-21" target="X4YH2WltudGpAk-nxp0_-23" edge="1">
          <mxGeometry width="50" height="50" relative="1" as="geometry">
            <mxPoint x="993" y="609" as="sourcePoint" />
            <mxPoint x="1125" y="584" as="targetPoint" />
          </mxGeometry>
        </mxCell>
        <mxCell id="X4YH2WltudGpAk-nxp0_-26" value="" style="endArrow=none;html=1;rounded=0;entryX=0;entryY=0.5;entryDx=0;entryDy=0;exitX=1;exitY=0.5;exitDx=0;exitDy=0;" parent="1" source="mLmcHliwGiG98P-fe-qq-57" target="X4YH2WltudGpAk-nxp0_-21" edge="1">
          <mxGeometry width="50" height="50" relative="1" as="geometry">
            <mxPoint x="583" y="826" as="sourcePoint" />
            <mxPoint x="709" y="608" as="targetPoint" />
          </mxGeometry>
        </mxCell>
        <mxCell id="X4YH2WltudGpAk-nxp0_-27" value="&lt;div&gt;&lt;span style=&quot;background-color: transparent; color: light-dark(rgb(0, 0, 0), rgb(255, 255, 255));&quot;&gt;&lt;b&gt;Answer correction&lt;/b&gt;: Student must correct mistakes by unlocking cells and revising inputs&lt;/span&gt;&lt;/div&gt;&lt;div&gt;&lt;span style=&quot;background-color: transparent; color: light-dark(rgb(0, 0, 0), rgb(255, 255, 255));&quot;&gt;&lt;b&gt;Metric&lt;/b&gt;:&amp;nbsp; Reduced repeat error rate, Increase problem accuracy&lt;/span&gt;&lt;/div&gt;" style="rounded=1;whiteSpace=wrap;html=1;align=left;spacingLeft=5;" parent="1" vertex="1">
          <mxGeometry x="699" y="965" width="284" height="72" as="geometry" />
        </mxCell>
        <mxCell id="X4YH2WltudGpAk-nxp0_-28" value="" style="endArrow=none;html=1;rounded=0;exitX=1;exitY=0.5;exitDx=0;exitDy=0;entryX=0;entryY=0.5;entryDx=0;entryDy=0;" parent="1" source="mLmcHliwGiG98P-fe-qq-56" target="X4YH2WltudGpAk-nxp0_-27" edge="1">
          <mxGeometry width="50" height="50" relative="1" as="geometry">
            <mxPoint x="583" y="878" as="sourcePoint" />
            <mxPoint x="709" y="878" as="targetPoint" />
          </mxGeometry>
        </mxCell>
        <mxCell id="X4YH2WltudGpAk-nxp0_-29" value="&lt;div&gt;&lt;span&gt;Provide immediate feedback&lt;/span&gt;&lt;/div&gt;" style="rounded=0;whiteSpace=wrap;html=1;align=left;spacingLeft=5;fontStyle=0" parent="1" vertex="1">
          <mxGeometry x="1115" y="886" width="208" height="30" as="geometry" />
        </mxCell>
        <mxCell id="X4YH2WltudGpAk-nxp0_-31" value="" style="endArrow=none;html=1;rounded=0;exitX=1;exitY=0.5;exitDx=0;exitDy=0;entryX=0;entryY=0.5;entryDx=0;entryDy=0;" parent="1" source="mLmcHliwGiG98P-fe-qq-48" target="X4YH2WltudGpAk-nxp0_-29" edge="1">
          <mxGeometry width="50" height="50" relative="1" as="geometry">
            <mxPoint x="950" y="946.6" as="sourcePoint" />
            <mxPoint x="1090" y="947" as="targetPoint" />
          </mxGeometry>
        </mxCell>
        <mxCell id="X4YH2WltudGpAk-nxp0_-32" value="" style="endArrow=none;html=1;rounded=0;exitX=1;exitY=0.5;exitDx=0;exitDy=0;entryX=0;entryY=0.5;entryDx=0;entryDy=0;" parent="1" source="mLmcHliwGiG98P-fe-qq-56" target="mLmcHliwGiG98P-fe-qq-48" edge="1">
          <mxGeometry width="50" height="50" relative="1" as="geometry">
            <mxPoint x="583" y="992" as="sourcePoint" />
            <mxPoint x="709" y="992" as="targetPoint" />
          </mxGeometry>
        </mxCell>
        <mxCell id="X4YH2WltudGpAk-nxp0_-33" value="&lt;div&gt;&lt;span&gt;Effort investment&lt;/span&gt;&lt;/div&gt;" style="rounded=0;whiteSpace=wrap;html=1;align=left;spacingLeft=5;fontStyle=0" parent="1" vertex="1">
          <mxGeometry x="1115" y="937" width="208" height="30" as="geometry" />
        </mxCell>
        <mxCell id="X4YH2WltudGpAk-nxp0_-34" value="&lt;div&gt;&lt;span&gt;Error attribution &amp;amp; reflection&lt;/span&gt;&lt;/div&gt;" style="rounded=0;whiteSpace=wrap;html=1;align=left;spacingLeft=5;fontStyle=0" parent="1" vertex="1">
          <mxGeometry x="1115" y="987" width="208" height="30" as="geometry" />
        </mxCell>
        <mxCell id="X4YH2WltudGpAk-nxp0_-35" value="&lt;div&gt;&lt;span&gt;Active engagement with corrections&lt;/span&gt;&lt;/div&gt;" style="rounded=0;whiteSpace=wrap;html=1;align=left;spacingLeft=5;fontStyle=0" parent="1" vertex="1">
          <mxGeometry x="1115" y="1035" width="208" height="30" as="geometry" />
        </mxCell>
        <mxCell id="X4YH2WltudGpAk-nxp0_-36" value="" style="endArrow=none;html=1;rounded=0;exitX=1;exitY=0.5;exitDx=0;exitDy=0;entryX=0;entryY=0.5;entryDx=0;entryDy=0;" parent="1" source="X4YH2WltudGpAk-nxp0_-27" target="X4YH2WltudGpAk-nxp0_-33" edge="1">
          <mxGeometry width="50" height="50" relative="1" as="geometry">
            <mxPoint x="993" y="927" as="sourcePoint" />
            <mxPoint x="1120" y="998" as="targetPoint" />
          </mxGeometry>
        </mxCell>
        <mxCell id="X4YH2WltudGpAk-nxp0_-37" value="" style="endArrow=none;html=1;rounded=0;exitX=1;exitY=0.5;exitDx=0;exitDy=0;entryX=0;entryY=0.5;entryDx=0;entryDy=0;" parent="1" source="X4YH2WltudGpAk-nxp0_-27" target="X4YH2WltudGpAk-nxp0_-34" edge="1">
          <mxGeometry width="50" height="50" relative="1" as="geometry">
            <mxPoint x="990" y="979" as="sourcePoint" />
            <mxPoint x="1120" y="1058" as="targetPoint" />
          </mxGeometry>
        </mxCell>
        <mxCell id="X4YH2WltudGpAk-nxp0_-38" value="" style="endArrow=none;html=1;rounded=0;entryX=0;entryY=0.5;entryDx=0;entryDy=0;exitX=1;exitY=0.5;exitDx=0;exitDy=0;" parent="1" source="X4YH2WltudGpAk-nxp0_-27" target="X4YH2WltudGpAk-nxp0_-35" edge="1">
          <mxGeometry width="50" height="50" relative="1" as="geometry">
            <mxPoint x="990" y="993" as="sourcePoint" />
            <mxPoint x="1122" y="1072" as="targetPoint" />
          </mxGeometry>
        </mxCell>
        <mxCell id="2Xn40PeV6G9lDLxGqtMH-1" value="&lt;div&gt;&lt;span style=&quot;background-color: transparent; color: light-dark(rgb(0, 0, 0), rgb(255, 255, 255));&quot;&gt;&lt;b&gt;Graduation&lt;/b&gt;: When student has met a threshold, graduate them to the next sub-level&lt;/span&gt;&lt;/div&gt;&lt;div&gt;&lt;span style=&quot;background-color: transparent; color: light-dark(rgb(0, 0, 0), rgb(255, 255, 255));&quot;&gt;&lt;b&gt;Metric&lt;/b&gt;:&amp;nbsp; Inc&lt;/span&gt;&lt;/div&gt;" style="rounded=1;whiteSpace=wrap;html=1;align=left;spacingLeft=5;" vertex="1" parent="1">
          <mxGeometry x="699" y="660" width="284" height="58" as="geometry" />
        </mxCell>
      </root>
    </mxGraphModel>
  </diagram>
</mxfile>
